<svg id="Layer_1" data-name="Layer 1" xmlns="http://www.w3.org/2000/svg" viewBox="-1 -1 36.43 36.37"><line x1="13.23" y1="0.87" x2="21.19" y2="33.44" fill="none" stroke="#000" stroke-width="1.2"/><path d="M37,.49A16.73,16.73,0,0,0,23.78,7,16.76,16.76,0,0,1,32,29.2a16.52,16.52,0,0,1-2,3.29,16.76,16.76,0,1,0,7-32Z" transform="translate(-19.84 -0.09)" fill="none" stroke="#000" stroke-width="1.2"/><path d="M30,32.5a16.76,16.76,0,0,1-8.22-22.23,17,17,0,0,1,2-3.29" transform="translate(-19.84 -0.09)" fill="none" stroke="#000" stroke-width="1.2"/><path d="M0,22.21" transform="translate(-19.84 -0.09)" fill="none" stroke="#000" stroke-width="1.2"/><path d="M37.16,34.07a16.75,16.75,0,0,0,13.21-6.53A16.75,16.75,0,0,1,42.05,5.35a17.46,17.46,0,0,1,2-3.31,16.77,16.77,0,1,0-6.89,32Z" transform="translate(-19.84 -0.09)" fill="none" stroke="#000" stroke-width="1.2"/><path d="M44.05,2.05a16.77,16.77,0,0,1,6.32,25.5" transform="translate(-19.84 -0.09)" fill="none" stroke="#000" stroke-width="1.2"/><path d="M74.09,12.23" transform="translate(-19.84 -0.09)" fill="none" stroke="#000" stroke-width="1.2"/><line x1="33.5" y1="13.18" x2="0.93" y2="21.13" fill="none" stroke="#000" stroke-width="1.2"/></svg>